<svg width="15" height="15" viewBox="0 0 15 15" fill="none" xmlns="http://www.w3.org/2000/svg">
<path d="M11.5873 14.9998C11.1882 15.0044 10.7935 14.9167 10.4339 14.7433C10.0744 14.57 9.75986 14.3158 9.5149 14.0007C9.26995 13.6856 9.10122 13.318 9.02193 12.9269C8.94265 12.5357 8.95495 12.1315 9.05787 11.7458L4.37726 9.07055C3.98242 9.4323 3.48595 9.66396 2.95507 9.73419C2.4242 9.80442 1.88457 9.70981 1.40925 9.46317C0.933928 9.21654 0.54588 8.82979 0.297647 8.35531C0.0494135 7.88082 -0.0470124 7.34151 0.0214256 6.8104C0.0898635 6.2793 0.319859 5.78205 0.68027 5.38599C1.04068 4.98993 1.5141 4.71419 2.03641 4.59612C2.55873 4.47804 3.10472 4.52332 3.60045 4.72583C4.09618 4.92834 4.5177 5.27831 4.80794 5.72833L9.05713 3.29904C9.00216 3.09132 8.97303 2.87761 8.97039 2.66275C8.96519 2.05579 9.16929 1.46558 9.54833 0.991486C9.92736 0.517398 10.4582 0.188392 11.0514 0.0598677C11.6446 -0.0686568 12.264 0.0111502 12.8053 0.285851C13.3465 0.560552 13.7766 1.01337 14.0231 1.56805C14.2696 2.12274 14.3174 2.74541 14.1585 3.33123C13.9996 3.91705 13.6437 4.43023 13.1508 4.78436C12.6578 5.13849 12.0579 5.31194 11.452 5.27551C10.8461 5.23908 10.2713 4.99499 9.82427 4.58434L5.2259 7.21251C5.22067 7.40692 5.19375 7.59908 5.1444 7.78675L9.82501 10.4613C10.1383 10.1738 10.517 9.96707 10.9282 9.85908C11.3395 9.75109 11.7709 9.74509 12.185 9.84159C12.5991 9.93809 12.9834 10.1342 13.3046 10.4128C13.6257 10.6915 13.874 11.0443 14.0279 11.4407C14.1819 11.8371 14.2367 12.265 14.1878 12.6874C14.1388 13.1098 13.9876 13.5138 13.7471 13.8645C13.5066 14.2152 13.1842 14.5019 12.8079 14.6997C12.4315 14.8976 12.0125 15.0006 11.5873 14.9998ZM11.5873 11.2613C11.2899 11.2613 11.0046 11.3795 10.7943 11.5898C10.584 11.8001 10.4658 12.0854 10.4658 12.3829C10.4658 12.6803 10.584 12.9656 10.7943 13.1759C11.0046 13.3863 11.2899 13.5044 11.5873 13.5044C11.8848 13.5044 12.1701 13.3863 12.3804 13.1759C12.5907 12.9656 12.7089 12.6803 12.7089 12.3829C12.7089 12.0854 12.5907 11.8001 12.3804 11.5898C12.1701 11.3795 11.8848 11.2613 11.5873 11.2613ZM2.61493 6.02741C2.31747 6.02741 2.0322 6.14557 1.82187 6.3559C1.61154 6.56623 1.49338 6.85151 1.49338 7.14896C1.49338 7.44641 1.61154 7.73169 1.82187 7.94202C2.0322 8.15235 2.31747 8.27051 2.61493 8.27051C2.91238 8.27051 3.19765 8.15235 3.40799 7.94202C3.61832 7.73169 3.73648 7.44641 3.73648 7.14896C3.73648 6.85151 3.61832 6.56623 3.40799 6.3559C3.19765 6.14557 2.91238 6.02741 2.61493 6.02741ZM11.5873 1.5412C11.4401 1.5412 11.2942 1.57021 11.1581 1.62657C11.0221 1.68293 10.8984 1.76555 10.7943 1.86969C10.6901 1.97384 10.6075 2.09748 10.5512 2.23355C10.4948 2.36962 10.4658 2.51547 10.4658 2.66275C10.4658 2.81003 10.4948 2.95588 10.5512 3.09195C10.6075 3.22802 10.6901 3.35166 10.7943 3.45581C10.8984 3.55995 11.0221 3.64257 11.1581 3.69893C11.2942 3.75529 11.4401 3.7843 11.5873 3.7843C11.8848 3.7843 12.1701 3.66614 12.3804 3.45581C12.5907 3.24548 12.7089 2.9602 12.7089 2.66275C12.7089 2.3653 12.5907 2.08002 12.3804 1.86969C12.1701 1.65936 11.8848 1.5412 11.5873 1.5412Z" fill="#233F78"/>
</svg>
