
<svg width="25" height="32" viewBox="0 0 25 32" fill="none" xmlns="http://www.w3.org/2000/svg">
<g id="Button/Icon/Normal">
<path id="Vector" d="M13.6 8H2.4C1.76348 8 1.15303 8.25681 0.702944 8.71393C0.252856 9.17105 0 9.79103 0 10.4375V18.5625C0 19.209 0.252856 19.829 0.702944 20.2861C1.15303 20.7432 1.76348 21 2.4 21H13.6C14.2365 21 14.847 20.7432 15.2971 20.2861C15.7471 19.829 16 19.209 16 18.5625V10.4375C16 9.79103 15.7471 9.17105 15.2971 8.71393C14.847 8.25681 14.2365 8 13.6 8ZM13.064 9.625L8 13.4844L2.936 9.625H13.064ZM13.6 19.375H2.4C2.18783 19.375 1.98434 19.2894 1.83431 19.137C1.68429 18.9847 1.6 18.778 1.6 18.5625V10.6406L7.52 15.15C7.65848 15.2555 7.8269 15.3125 8 15.3125C8.1731 15.3125 8.34152 15.2555 8.48 15.15L14.4 10.6406V18.5625C14.4 18.778 14.3157 18.9847 14.1657 19.137C14.0157 19.2894 13.8122 19.375 13.6 19.375Z" fill="#4D4D4D"/>
</g>
</svg>