<svg width="18" height="18" viewBox="0 0 18 18" fill="none" xmlns="http://www.w3.org/2000/svg">
<path id="Vector" d="M9.00097 2.59425e-08C7.43786 -0.000118638 5.90168 0.406854 4.54365 1.18085C3.18563 1.95484 2.0526 3.06917 1.25611 4.41412C0.459619 5.75907 0.0271339 7.28827 0.00123572 8.85116C-0.0246625 10.414 0.356919 11.9567 1.10841 13.3273L0.372811 15.9236C0.304188 16.1602 0.300331 16.4108 0.361641 16.6494C0.422951 16.888 0.547181 17.1057 0.721361 17.2799C0.895541 17.4541 1.11328 17.5783 1.35186 17.6396C1.59044 17.7009 1.8411 17.6971 2.07767 17.6284L4.67391 16.8928C5.87708 17.5523 7.21509 17.9279 8.58567 17.991C9.95625 18.0542 11.3231 17.8031 12.5818 17.257C13.8405 16.711 14.9577 15.8843 15.848 14.8404C16.7382 13.7964 17.3781 12.5627 17.7185 11.2336C18.059 9.90446 18.091 8.51509 17.8123 7.17167C17.5335 5.82825 16.9513 4.56635 16.1101 3.48241C15.269 2.39847 14.1911 1.52119 12.959 0.917626C11.7268 0.314062 10.373 0.000190051 9.00097 2.59425e-08ZM9.00097 16.6159C7.63389 16.6146 6.29213 16.2471 5.11527 15.5514C5.00667 15.4909 4.88477 15.4582 4.76045 15.4563C4.69611 15.4563 4.63207 15.4651 4.57006 15.4822L1.69689 16.3044L2.51903 13.4312C2.54432 13.3403 2.55123 13.2452 2.53934 13.1516C2.52745 13.058 2.49701 12.9677 2.4498 12.886C1.59248 11.4409 1.23715 9.75284 1.43914 8.08476C1.64114 6.41669 2.38912 4.86224 3.56658 3.66355C4.74404 2.46486 6.28487 1.68922 7.94907 1.45745C9.61327 1.22569 11.3074 1.5508 12.7676 2.38216C14.2278 3.21352 15.372 4.50444 16.0221 6.05385C16.6722 7.60326 16.7916 9.32416 16.3617 10.9485C15.9319 12.5729 14.9769 14.0095 13.6456 15.0345C12.3142 16.0596 10.6812 16.6156 9.00097 16.6159ZM13.5444 10.3071L11.7703 9.29452C11.5578 9.17224 11.3164 9.10933 11.0713 9.11238C10.8261 9.11542 10.5863 9.18431 10.377 9.31183L9.34713 9.92627C8.82178 9.61732 8.38392 9.17947 8.07498 8.65412L8.68942 7.62428C8.81694 7.41491 8.88582 7.17511 8.88887 6.92999C8.89191 6.68487 8.829 6.44343 8.70673 6.23096L7.69419 4.45687C7.5816 4.26009 7.41911 4.09647 7.22311 3.98252C7.02711 3.86857 6.80453 3.80831 6.57781 3.80781C5.75303 3.80781 4.96191 4.13486 4.37789 4.71725C3.79387 5.29965 3.46462 6.08986 3.46233 6.91464C3.46233 8.93522 4.26441 10.8732 5.69237 12.3028C7.12033 13.7323 9.05737 14.5366 11.078 14.5389H11.0866C11.9114 14.5366 12.7016 14.2074 13.284 13.6234C13.8664 13.0393 14.1934 12.2482 14.1934 11.4234C14.1929 11.1967 14.1327 10.9741 14.0187 10.7781C13.9048 10.5821 13.7412 10.4197 13.5444 10.3071ZM11.0866 13.1543C10.2669 13.1554 9.455 12.9948 8.69746 12.6816C7.93992 12.3684 7.25162 11.9089 6.67199 11.3293C6.09236 10.7496 5.6328 10.0613 5.31963 9.30379C5.00646 8.54625 4.84585 7.73436 4.84699 6.91464C4.84685 6.46529 5.02234 6.03368 5.33601 5.71193C5.64968 5.39017 6.07668 5.20376 6.52589 5.19247L7.5038 6.91464L6.69032 8.26468C6.63401 8.36097 6.60149 8.46931 6.59547 8.58069C6.58945 8.69208 6.6101 8.80329 6.6557 8.90509C7.13802 9.99332 8.00793 10.8632 9.09616 11.3455C9.19796 11.3911 9.30917 11.4118 9.42055 11.4058C9.53194 11.3998 9.64027 11.3672 9.73656 11.3109L11.0866 10.4974L12.8088 11.4754C12.7975 11.9246 12.6111 12.3516 12.2893 12.6652C11.9676 12.9789 11.536 13.1544 11.0866 13.1543Z" fill="#507CDD"/>
</svg>
